<svg xmlns="http://www.w3.org/2000/svg" version="1.1" xmlns:xlink="http://www.w3.org/1999/xlink" xmlns:svgjs="http://svgjs.com/svgjs" width="32" height="32"><svg xmlns="http://www.w3.org/2000/svg" viewBox="0 0 32 32">
    <path style="text-indent:0;text-align:start;line-height:normal;text-transform:none;block-progression:tb;-inkscape-font-specification:Bitstream Vera Sans" d="M 10 3 L 10 5 C 10 6.3947973 10.982119 7.5776652 12.28125 7.90625 C 12.110404 8.4064265 12 8.9755342 12 9.59375 C 12 10.458023 12.315302 11.240522 12.8125 11.8125 C 12.769539 11.840278 12.729601 11.876748 12.6875 11.90625 L 9.75 11.15625 L 7.9375 6.625 L 6.0625 7.375 L 8.0625 12.375 L 8.25 12.84375 L 8.75 12.96875 L 11.34375 13.625 C 11.209514 13.96484 11.115173 14.328218 11.0625 14.71875 L 8.25 14.03125 L 7.6875 13.90625 L 7.28125 14.28125 L 4.28125 17.28125 L 5.71875 18.71875 L 8.3125 16.125 L 11.15625 16.8125 C 11.214867 17.065775 11.297089 17.314162 11.40625 17.5625 L 7.625 19.0625 L 7.1875 19.25 L 7.03125 19.71875 L 5.03125 26.71875 L 6.96875 27.28125 L 8.84375 20.75 L 12.78125 19.1875 C 12.800558 19.199886 12.824112 19.206624 12.84375 19.21875 C 11.907423 19.842933 11 20.77579 11 22.15625 C 11 23.505794 11.521647 24.88686 12.375 26 C 13.228353 27.11314 14.48471 28 16 28 C 17.51529 28 18.771647 27.11314 19.625 26 C 20.478353 24.88686 21 23.505794 21 22.15625 C 21 20.793778 20.110563 19.874594 19.1875 19.25 C 19.218075 19.231245 19.251491 19.206904 19.28125 19.1875 L 23.15625 20.75 L 25.03125 27.28125 L 26.96875 26.71875 L 24.96875 19.71875 L 24.8125 19.25 L 24.375 19.0625 L 20.59375 17.5625 C 20.699487 17.312979 20.787598 17.065866 20.84375 16.8125 L 23.6875 16.125 L 26.28125 18.71875 L 27.71875 17.28125 L 24.71875 14.28125 L 24.3125 13.90625 L 23.75 14.03125 L 20.9375 14.71875 C 20.884827 14.328218 20.790486 13.96484 20.65625 13.625 L 23.25 12.96875 L 23.75 12.84375 L 23.9375 12.375 L 25.9375 7.375 L 24.0625 6.625 L 22.25 11.15625 L 19.3125 11.90625 C 19.270399 11.876748 19.230461 11.840278 19.1875 11.8125 C 19.684698 11.240522 20 10.458023 20 9.59375 C 20 8.9749258 19.876378 8.4083782 19.6875 7.90625 C 21.000997 7.588017 22 6.4050784 22 5 L 22 3 L 20 3 L 20 5 C 20 5.5650302 19.56503 6 19 6 L 18.71875 6 C 18.168328 4.5095344 17 4 17 4 L 17 5.1875 C 16.668696 5.069285 16.341289 5 16 5 C 15.67327 5 15.343202 5.077523 15 5.1875 L 15 4 C 15 4 13.835599 4.500728 13.28125 6 L 13 6 C 12.43497 6 12 5.5650302 12 5 L 12 3 L 10 3 z M 16 7 C 16.06358 7 16.694047 7.1904905 17.15625 7.625 C 17.618453 8.0595095 18 8.6510716 18 9.59375 C 18 10.218184 17.856821 10.417908 17.5625 10.625 C 17.268179 10.832092 16.706635 11 16 11 C 15.293365 11 14.731821 10.832092 14.4375 10.625 C 14.143179 10.417908 14 10.218184 14 9.59375 C 14 8.5388607 14.367954 7.9641476 14.8125 7.5625 C 15.257046 7.1608524 15.871024 7 16 7 z M 16 13 C 16.977817 13 17.775681 13.205549 18.25 13.5625 C 18.724319 13.919451 19 14.414725 19 15.4375 C 19 16.182473 18.871651 16.808836 18.53125 17.21875 C 18.190849 17.628664 17.556612 18 16.03125 18 C 16.019379 18 16.011765 18.000044 16 18 C 14.500017 17.994403 13.854778 17.633129 13.5 17.21875 C 13.142439 16.801121 13 16.168788 13 15.4375 C 13 14.414725 13.275681 13.919451 13.75 13.5625 C 14.224319 13.205549 15.022183 13 16 13 z M 16 20 C 16.010681 20.000036 16.020536 20 16.03125 20 C 16.136808 20.024195 16.331626 20.092063 16.53125 20.15625 C 16.875779 20.267033 17.323125 20.435924 17.71875 20.65625 C 18.51 21.096902 19 21.62397 19 22.15625 C 19 22.953706 18.622397 24.01014 18.03125 24.78125 C 17.440103 25.55236 16.70671 26 16 26 C 15.29329 26 14.559897 25.55236 13.96875 24.78125 C 13.377603 24.01014 13 22.953706 13 22.15625 C 13 21.62397 13.49 21.096902 14.28125 20.65625 C 14.676875 20.435924 15.124221 20.267033 15.46875 20.15625 C 15.686614 20.086196 15.907448 20.022837 16 20 z"></path>
</svg><style>@media (prefers-color-scheme: light) { :root { filter: none; } }
@media (prefers-color-scheme: dark) { :root { filter: invert(100%); } }
</style></svg>